<svg width="18" height="18" viewBox="0 0 18 18" fill="none" xmlns="http://www.w3.org/2000/svg">
<path d="M0 9C0 8.36941 0.511807 7.86575 1.13533 7.77158C4.55362 7.25532 7.2553 4.55362 7.77156 1.13535C7.86573 0.511817 8.3694 0 9 0C9.6306 0 10.1343 0.511817 10.2284 1.13535C10.7447 4.55362 13.4464 7.25532 16.8647 7.77158C17.4882 7.86575 18 8.36941 18 9C18 9.63059 17.4882 10.1343 16.8647 10.2284C13.4464 10.7447 10.7447 13.4464 10.2284 16.8647C10.1343 17.4882 9.6306 18 9 18C8.3694 18 7.86573 17.4882 7.77156 16.8647C7.2553 13.4464 4.55362 10.7447 1.13533 10.2284C0.511808 10.1343 0 9.63059 0 9Z" fill="#010101"/>
</svg>
