<svg xmlns="http://www.w3.org/2000/svg" xmlns:xlink="http://www.w3.org/1999/xlink" width="398" zoomAndPan="magnify" viewBox="0 0 298.5 52.499999" height="70" preserveAspectRatio="xMidYMid meet" version="1.0"><defs><g/><clipPath id="3cac5083d3"><path d="M 1.160156 1 L 57.125 1 L 57.125 49.910156 L 1.160156 49.910156 Z M 1.160156 1 " clip-rule="nonzero"/></clipPath><clipPath id="024d5cb51e"><path d="M 267 8 L 296.84375 8 L 296.84375 46 L 267 46 Z M 267 8 " clip-rule="nonzero"/></clipPath></defs><g clip-path="url(#3cac5083d3)"><path fill="#917148" d="M 57.355469 44.714844 L 46.394531 44.714844 C 46.394531 44.714844 46.066406 44.191406 46.917969 44.136719 C 47.75 44.082031 48.011719 44.054688 48.609375 43.875 C 49.230469 43.644531 49.875 43.15625 50.050781 41.941406 C 50.191406 40.945312 50.207031 31.457031 50.179688 29.964844 C 50.164062 29.191406 50.15625 29.992188 50.152344 26.707031 C 50.089844 26.171875 49.925781 25.523438 49.488281 25.257812 C 48.875 24.878906 48.585938 24.757812 46.292969 24.757812 C 46.195312 24.757812 46.117188 24.757812 46.042969 24.757812 L 35.359375 24.757812 C 35.292969 24.757812 35.214844 24.757812 35.125 24.757812 C 32.832031 24.757812 32.542969 24.878906 31.929688 25.257812 C 31.328125 25.628906 31.238281 26.730469 31.230469 27.257812 L 31.230469 27.390625 C 31.234375 27.492188 31.238281 27.550781 31.238281 27.550781 L 31.230469 27.546875 C 31.234375 30.207031 31.214844 30.058594 31.199219 31.109375 C 31.167969 32.632812 31.179688 34.746094 31.328125 35.761719 C 31.496094 36.972656 32.136719 37.460938 32.753906 37.6875 C 33.363281 37.875 33.621094 37.902344 34.460938 37.957031 C 35.3125 38.011719 34.984375 38.535156 34.984375 38.535156 L 21.4375 38.535156 C 21.4375 38.535156 21.109375 38.011719 21.960938 37.957031 C 22.574219 37.917969 22.878906 37.890625 23.234375 37.808594 C 23.273438 37.796875 23.316406 37.789062 23.355469 37.777344 C 23.363281 37.777344 23.367188 37.777344 23.375 37.773438 C 24.054688 37.585938 24.863281 37.140625 25.058594 35.761719 C 25.199219 34.769531 25.214844 32.703125 25.1875 31.207031 C 25.15625 29.574219 25.144531 23.957031 25.175781 22.527344 C 25.21875 20.910156 25.214844 17.171875 25.058594 16.070312 C 24.863281 14.691406 24.054688 14.246094 23.371094 14.054688 C 23.367188 14.054688 23.363281 14.054688 23.359375 14.050781 C 23.316406 14.042969 23.273438 14.03125 23.234375 14.023438 C 22.878906 13.9375 22.574219 13.914062 21.960938 13.875 C 21.109375 13.820312 21.4375 13.292969 21.4375 13.292969 L 34.984375 13.292969 C 34.984375 13.292969 35.3125 13.820312 34.460938 13.875 C 33.621094 13.929688 33.363281 13.957031 32.753906 14.140625 C 32.136719 14.371094 31.496094 14.859375 31.328125 16.070312 C 31.308594 16.199219 31.261719 17.253906 31.246094 18.355469 C 31.230469 19.546875 31.257812 20.789062 31.246094 20.96875 C 31.234375 21.21875 31.183594 22.824219 31.925781 23.28125 C 32.539062 23.660156 32.832031 23.722656 35.125 23.722656 L 47.957031 23.722656 C 48.804688 23.679688 49.074219 23.566406 49.492188 23.308594 C 49.925781 23.042969 50.089844 22.386719 50.152344 21.835938 C 50.152344 20.167969 50.160156 14.917969 50.171875 14.515625 C 50.210938 12.898438 50.207031 11.007812 50.050781 9.90625 C 49.875 8.6875 49.230469 8.199219 48.609375 7.972656 C 48.011719 7.789062 47.75 7.765625 46.917969 7.707031 C 46.066406 7.652344 46.394531 7.128906 46.394531 7.128906 L 57.355469 7.128906 C 57.355469 7.128906 57.683594 7.652344 56.832031 7.707031 C 55.992188 7.765625 55.734375 7.789062 55.121094 7.976562 C 54.507812 8.207031 53.867188 8.699219 53.691406 9.90625 C 53.523438 11.09375 53.535156 13.203125 53.585938 14.894531 C 53.621094 16.121094 53.597656 28.347656 53.566406 29.867188 C 53.535156 31.386719 53.546875 40.925781 53.691406 41.941406 C 53.867188 43.148438 54.507812 43.640625 55.121094 43.867188 C 55.734375 44.054688 55.992188 44.078125 56.832031 44.136719 C 57.683594 44.191406 57.355469 44.714844 57.355469 44.714844 Z M 17.761719 21.242188 L 41.195312 38.847656 C 40.785156 38.847656 40.71875 39.132812 40.664062 39.296875 C 40.007812 41.425781 38.929688 43.3125 37.433594 44.960938 C 37.367188 45.035156 37.300781 45.105469 37.234375 45.175781 C 37.226562 45.183594 37.21875 45.191406 37.210938 45.199219 C 36.980469 45.441406 36.71875 45.6875 36.433594 45.9375 C 36.394531 45.972656 36.359375 46.003906 36.320312 46.035156 C 36.207031 46.132812 36.085938 46.230469 35.964844 46.328125 C 35.902344 46.378906 35.84375 46.425781 35.78125 46.472656 C 35.726562 46.511719 35.675781 46.554688 35.625 46.59375 C 35.570312 46.632812 35.519531 46.667969 35.46875 46.707031 C 35.425781 46.734375 35.386719 46.765625 35.347656 46.792969 C 35.273438 46.84375 35.199219 46.890625 35.125 46.941406 C 34.414062 47.414062 33.664062 47.816406 32.875 48.144531 C 31.648438 48.574219 30.382812 48.824219 29.082031 48.890625 C 22.257812 49.242188 16.089844 44.417969 12.820312 37.09375 C 12.75 36.9375 12.679688 36.777344 12.613281 36.617188 C 12.589844 36.5625 12.566406 36.507812 12.546875 36.457031 C 12.496094 36.339844 12.449219 36.226562 12.402344 36.109375 C 12.378906 36.042969 12.351562 35.976562 12.324219 35.90625 C 12.269531 35.765625 12.214844 35.621094 12.160156 35.472656 C 12.125 35.382812 12.09375 35.289062 12.058594 35.195312 C 11.097656 32.488281 10.542969 29.699219 10.402344 26.832031 C 10.402344 26.824219 10.402344 26.8125 10.402344 26.804688 C 10.296875 25.601562 10.238281 24.308594 10.238281 22.914062 C 10.238281 9.914062 16.191406 5.164062 20.953125 3.441406 C 22.335938 2.847656 23.777344 2.53125 25.28125 2.488281 C 25.511719 2.480469 25.738281 2.480469 25.964844 2.480469 C 26.476562 2.46875 26.777344 2.492188 26.777344 2.492188 C 36.832031 2.492188 39.929688 10.050781 40.664062 12.472656 C 40.71875 12.636719 40.785156 12.921875 41.199219 12.921875 C 41.566406 12.921875 41.585938 12.523438 41.585938 12.414062 L 41.351562 2.363281 L 41.324219 1.261719 C 41.308594 1.25 41.296875 1.242188 41.28125 1.234375 C 40.644531 0.898438 40.253906 2.433594 40.085938 2.769531 C 40 2.980469 39.78125 3.285156 39.203125 3.460938 C 38.296875 3.734375 33.738281 2.65625 32.5 2.292969 C 31.265625 1.929688 22.082031 0.328125 16.472656 2.730469 C 5.78125 6.757812 -0.203125 18.734375 1.433594 29.671875 C 1.476562 30.136719 1.558594 30.597656 1.679688 31.046875 C 2.125 33.191406 2.871094 35.222656 3.914062 37.148438 C 8.574219 47.921875 19.257812 50.324219 25.324219 50.324219 C 25.714844 50.324219 26.085938 50.304688 26.4375 50.277344 C 29.445312 50.117188 31.902344 49.652344 32.5 49.476562 C 33.738281 49.113281 38.296875 48.035156 39.203125 48.308594 C 39.445312 48.375 39.660156 48.488281 39.84375 48.65625 C 40.4375 49.070312 41.34375 49.6875 41.363281 48.875 C 41.363281 48.871094 41.363281 48.871094 41.363281 48.867188 L 41.585938 39.355469 C 41.585938 39.246094 41.566406 38.847656 41.195312 38.847656 Z M 17.761719 21.242188 " fill-opacity="1" fill-rule="nonzero"/></g><g fill="#917148" fill-opacity="1"><g transform="translate(60.800918, 45.480226)"><g><path d="M 10.4375 -12.328125 L 8.46875 -6.90625 C 8.320312 -6.5 8.207031 -6.097656 8.125 -5.703125 C 8.039062 -5.316406 8 -4.976562 8 -4.6875 C 8 -3.8125 8.28125 -3.171875 8.84375 -2.765625 C 9.40625 -2.367188 10.265625 -2.171875 11.421875 -2.171875 L 12.609375 -2.171875 L 12.609375 0 L 0 0 L 0 -2.171875 L 0.984375 -2.171875 C 1.484375 -2.171875 1.910156 -2.222656 2.265625 -2.328125 C 2.617188 -2.441406 2.9375 -2.648438 3.21875 -2.953125 C 3.507812 -3.253906 3.785156 -3.664062 4.046875 -4.1875 C 4.304688 -4.707031 4.597656 -5.378906 4.921875 -6.203125 L 16.359375 -36.859375 L 20.40625 -36.859375 L 32.078125 -4.921875 C 32.273438 -4.378906 32.476562 -3.929688 32.6875 -3.578125 C 32.894531 -3.222656 33.140625 -2.941406 33.421875 -2.734375 C 33.710938 -2.523438 34.039062 -2.378906 34.40625 -2.296875 C 34.78125 -2.210938 35.222656 -2.171875 35.734375 -2.171875 L 36.40625 -2.171875 L 36.40625 0 L 22.21875 0 L 22.21875 -2.171875 L 23.40625 -2.171875 C 25.46875 -2.171875 26.5 -2.992188 26.5 -4.640625 C 26.5 -4.921875 26.460938 -5.210938 26.390625 -5.515625 C 26.316406 -5.816406 26.210938 -6.164062 26.078125 -6.5625 L 24 -12.328125 Z M 19.875 -23.953125 C 19.332031 -25.484375 18.835938 -26.914062 18.390625 -28.25 C 17.941406 -29.59375 17.578125 -30.882812 17.296875 -32.125 C 17.179688 -31.5 17.039062 -30.894531 16.875 -30.3125 C 16.71875 -29.738281 16.546875 -29.148438 16.359375 -28.546875 C 16.179688 -27.941406 15.972656 -27.304688 15.734375 -26.640625 C 15.492188 -25.972656 15.222656 -25.238281 14.921875 -24.4375 L 11.421875 -14.921875 L 23.078125 -14.921875 Z M 19.875 -23.953125 "/></g></g></g><g fill="#917148" fill-opacity="1"><g transform="translate(97.209496, 45.480226)"><g><path d="M 18.6875 0.5 C 16.65625 0.5 14.832031 0.285156 13.21875 -0.140625 C 11.601562 -0.566406 10.234375 -1.242188 9.109375 -2.171875 C 7.992188 -3.109375 7.140625 -4.3125 6.546875 -5.78125 C 5.960938 -7.257812 5.671875 -9.046875 5.671875 -11.140625 L 5.671875 -31.1875 C 5.671875 -31.945312 5.554688 -32.554688 5.328125 -33.015625 C 5.109375 -33.484375 4.800781 -33.84375 4.40625 -34.09375 C 4.019531 -34.34375 3.570312 -34.503906 3.0625 -34.578125 C 2.550781 -34.660156 2.007812 -34.703125 1.4375 -34.703125 L 0.78125 -34.703125 L 0.78125 -36.859375 L 15.8125 -36.859375 L 15.8125 -34.703125 L 15.125 -34.703125 C 14.550781 -34.703125 14.003906 -34.65625 13.484375 -34.5625 C 12.960938 -34.476562 12.515625 -34.304688 12.140625 -34.046875 C 11.765625 -33.785156 11.460938 -33.410156 11.234375 -32.921875 C 11.003906 -32.441406 10.890625 -31.796875 10.890625 -30.984375 L 10.890625 -10.84375 C 10.890625 -9.34375 11.101562 -8.066406 11.53125 -7.015625 C 11.957031 -5.972656 12.550781 -5.125 13.3125 -4.46875 C 14.082031 -3.8125 14.992188 -3.332031 16.046875 -3.03125 C 17.097656 -2.726562 18.253906 -2.578125 19.515625 -2.578125 C 21.015625 -2.578125 22.304688 -2.773438 23.390625 -3.171875 C 24.472656 -3.578125 25.367188 -4.132812 26.078125 -4.84375 C 26.796875 -5.5625 27.328125 -6.410156 27.671875 -7.390625 C 28.015625 -8.378906 28.1875 -9.460938 28.1875 -10.640625 L 28.1875 -31.1875 C 28.1875 -31.945312 28.070312 -32.554688 27.84375 -33.015625 C 27.625 -33.484375 27.316406 -33.84375 26.921875 -34.09375 C 26.535156 -34.34375 26.085938 -34.503906 25.578125 -34.578125 C 25.066406 -34.660156 24.523438 -34.703125 23.953125 -34.703125 L 23.296875 -34.703125 L 23.296875 -36.859375 L 36.265625 -36.859375 L 36.265625 -34.703125 L 35.578125 -34.703125 C 35.003906 -34.703125 34.457031 -34.65625 33.9375 -34.5625 C 33.414062 -34.476562 32.960938 -34.304688 32.578125 -34.046875 C 32.203125 -33.785156 31.898438 -33.410156 31.671875 -32.921875 C 31.453125 -32.441406 31.34375 -31.796875 31.34375 -30.984375 L 31.34375 -10.546875 C 31.34375 -8.828125 31.066406 -7.28125 30.515625 -5.90625 C 29.972656 -4.539062 29.164062 -3.382812 28.09375 -2.4375 C 27.03125 -1.488281 25.707031 -0.757812 24.125 -0.25 C 22.550781 0.25 20.738281 0.5 18.6875 0.5 Z M 18.6875 0.5 "/></g></g></g><g fill="#917148" fill-opacity="1"><g transform="translate(134.223204, 45.480226)"><g><path d="M 12.078125 -34.296875 L 12.078125 -19.359375 L 24.53125 -19.359375 L 24.53125 -16.84375 L 12.078125 -16.84375 L 12.078125 -5.875 C 12.078125 -5.070312 12.191406 -4.425781 12.421875 -3.9375 C 12.648438 -3.445312 12.953125 -3.070312 13.328125 -2.8125 C 13.703125 -2.550781 14.148438 -2.378906 14.671875 -2.296875 C 15.191406 -2.210938 15.738281 -2.171875 16.3125 -2.171875 L 18.03125 -2.171875 L 18.03125 0 L 1.96875 0 L 1.96875 -2.171875 L 2.625 -2.171875 C 3.195312 -2.171875 3.738281 -2.207031 4.25 -2.28125 C 4.757812 -2.351562 5.207031 -2.503906 5.59375 -2.734375 C 5.976562 -2.972656 6.285156 -3.320312 6.515625 -3.78125 C 6.742188 -4.25 6.859375 -4.863281 6.859375 -5.625 L 6.859375 -31.1875 C 6.859375 -31.945312 6.742188 -32.554688 6.515625 -33.015625 C 6.285156 -33.484375 5.976562 -33.84375 5.59375 -34.09375 C 5.207031 -34.34375 4.757812 -34.503906 4.25 -34.578125 C 3.738281 -34.660156 3.195312 -34.703125 2.625 -34.703125 L 1.96875 -34.703125 L 1.96875 -36.859375 L 27.984375 -36.859375 L 28.234375 -27.84375 L 25.5625 -27.84375 L 25.3125 -30.0625 C 25.25 -30.644531 25.113281 -31.191406 24.90625 -31.703125 C 24.707031 -32.222656 24.414062 -32.671875 24.03125 -33.046875 C 23.65625 -33.421875 23.179688 -33.722656 22.609375 -33.953125 C 22.046875 -34.179688 21.359375 -34.296875 20.546875 -34.296875 Z M 12.078125 -34.296875 "/></g></g></g><g fill="#917148" fill-opacity="1"><g transform="translate(164.68135, 45.480226)"><g><path d="M 12.078125 -34.296875 L 12.078125 -19.359375 L 24.53125 -19.359375 L 24.53125 -16.84375 L 12.078125 -16.84375 L 12.078125 -5.875 C 12.078125 -5.070312 12.191406 -4.425781 12.421875 -3.9375 C 12.648438 -3.445312 12.953125 -3.070312 13.328125 -2.8125 C 13.703125 -2.550781 14.148438 -2.378906 14.671875 -2.296875 C 15.191406 -2.210938 15.738281 -2.171875 16.3125 -2.171875 L 18.03125 -2.171875 L 18.03125 0 L 1.96875 0 L 1.96875 -2.171875 L 2.625 -2.171875 C 3.195312 -2.171875 3.738281 -2.207031 4.25 -2.28125 C 4.757812 -2.351562 5.207031 -2.503906 5.59375 -2.734375 C 5.976562 -2.972656 6.285156 -3.320312 6.515625 -3.78125 C 6.742188 -4.25 6.859375 -4.863281 6.859375 -5.625 L 6.859375 -31.1875 C 6.859375 -31.945312 6.742188 -32.554688 6.515625 -33.015625 C 6.285156 -33.484375 5.976562 -33.84375 5.59375 -34.09375 C 5.207031 -34.34375 4.757812 -34.503906 4.25 -34.578125 C 3.738281 -34.660156 3.195312 -34.703125 2.625 -34.703125 L 1.96875 -34.703125 L 1.96875 -36.859375 L 27.984375 -36.859375 L 28.234375 -27.84375 L 25.5625 -27.84375 L 25.3125 -30.0625 C 25.25 -30.644531 25.113281 -31.191406 24.90625 -31.703125 C 24.707031 -32.222656 24.414062 -32.671875 24.03125 -33.046875 C 23.65625 -33.421875 23.179688 -33.722656 22.609375 -33.953125 C 22.046875 -34.179688 21.359375 -34.296875 20.546875 -34.296875 Z M 12.078125 -34.296875 "/></g></g></g><g fill="#917148" fill-opacity="1"><g transform="translate(195.139495, 45.480226)"><g><path d="M 18.6875 0.5 C 16.65625 0.5 14.832031 0.285156 13.21875 -0.140625 C 11.601562 -0.566406 10.234375 -1.242188 9.109375 -2.171875 C 7.992188 -3.109375 7.140625 -4.3125 6.546875 -5.78125 C 5.960938 -7.257812 5.671875 -9.046875 5.671875 -11.140625 L 5.671875 -31.1875 C 5.671875 -31.945312 5.554688 -32.554688 5.328125 -33.015625 C 5.109375 -33.484375 4.800781 -33.84375 4.40625 -34.09375 C 4.019531 -34.34375 3.570312 -34.503906 3.0625 -34.578125 C 2.550781 -34.660156 2.007812 -34.703125 1.4375 -34.703125 L 0.78125 -34.703125 L 0.78125 -36.859375 L 15.8125 -36.859375 L 15.8125 -34.703125 L 15.125 -34.703125 C 14.550781 -34.703125 14.003906 -34.65625 13.484375 -34.5625 C 12.960938 -34.476562 12.515625 -34.304688 12.140625 -34.046875 C 11.765625 -33.785156 11.460938 -33.410156 11.234375 -32.921875 C 11.003906 -32.441406 10.890625 -31.796875 10.890625 -30.984375 L 10.890625 -10.84375 C 10.890625 -9.34375 11.101562 -8.066406 11.53125 -7.015625 C 11.957031 -5.972656 12.550781 -5.125 13.3125 -4.46875 C 14.082031 -3.8125 14.992188 -3.332031 16.046875 -3.03125 C 17.097656 -2.726562 18.253906 -2.578125 19.515625 -2.578125 C 21.015625 -2.578125 22.304688 -2.773438 23.390625 -3.171875 C 24.472656 -3.578125 25.367188 -4.132812 26.078125 -4.84375 C 26.796875 -5.5625 27.328125 -6.410156 27.671875 -7.390625 C 28.015625 -8.378906 28.1875 -9.460938 28.1875 -10.640625 L 28.1875 -31.1875 C 28.1875 -31.945312 28.070312 -32.554688 27.84375 -33.015625 C 27.625 -33.484375 27.316406 -33.84375 26.921875 -34.09375 C 26.535156 -34.34375 26.085938 -34.503906 25.578125 -34.578125 C 25.066406 -34.660156 24.523438 -34.703125 23.953125 -34.703125 L 23.296875 -34.703125 L 23.296875 -36.859375 L 36.265625 -36.859375 L 36.265625 -34.703125 L 35.578125 -34.703125 C 35.003906 -34.703125 34.457031 -34.65625 33.9375 -34.5625 C 33.414062 -34.476562 32.960938 -34.304688 32.578125 -34.046875 C 32.203125 -33.785156 31.898438 -33.410156 31.671875 -32.921875 C 31.453125 -32.441406 31.34375 -31.796875 31.34375 -30.984375 L 31.34375 -10.546875 C 31.34375 -8.828125 31.066406 -7.28125 30.515625 -5.90625 C 29.972656 -4.539062 29.164062 -3.382812 28.09375 -2.4375 C 27.03125 -1.488281 25.707031 -0.757812 24.125 -0.25 C 22.550781 0.25 20.738281 0.5 18.6875 0.5 Z M 18.6875 0.5 "/></g></g></g><g fill="#917148" fill-opacity="1"><g transform="translate(232.153203, 45.480226)"><g><path d="M 28.625 -6.296875 C 29.5 -4.921875 30.347656 -3.890625 31.171875 -3.203125 C 31.992188 -2.515625 32.953125 -2.171875 34.046875 -2.171875 L 34.1875 -2.171875 L 34.1875 0 L 33.453125 0 C 31.847656 0 30.523438 -0.0546875 29.484375 -0.171875 C 28.453125 -0.296875 27.570312 -0.523438 26.84375 -0.859375 C 26.125 -1.191406 25.507812 -1.660156 25 -2.265625 C 24.488281 -2.867188 23.9375 -3.660156 23.34375 -4.640625 L 16.359375 -16.265625 L 12.078125 -16.265625 L 12.078125 -5.625 C 12.078125 -4.863281 12.191406 -4.25 12.421875 -3.78125 C 12.648438 -3.320312 12.957031 -2.972656 13.34375 -2.734375 C 13.726562 -2.503906 14.175781 -2.351562 14.6875 -2.28125 C 15.195312 -2.207031 15.738281 -2.171875 16.3125 -2.171875 L 17 -2.171875 L 17 0 L 1.96875 0 L 1.96875 -2.171875 L 2.625 -2.171875 C 3.195312 -2.171875 3.738281 -2.207031 4.25 -2.28125 C 4.757812 -2.351562 5.207031 -2.503906 5.59375 -2.734375 C 5.976562 -2.972656 6.285156 -3.320312 6.515625 -3.78125 C 6.742188 -4.25 6.859375 -4.863281 6.859375 -5.625 L 6.859375 -31.1875 C 6.859375 -31.945312 6.742188 -32.554688 6.515625 -33.015625 C 6.285156 -33.484375 5.976562 -33.84375 5.59375 -34.09375 C 5.207031 -34.34375 4.757812 -34.503906 4.25 -34.578125 C 3.738281 -34.660156 3.195312 -34.703125 2.625 -34.703125 L 1.96875 -34.703125 L 1.96875 -36.859375 L 15.859375 -36.859375 C 20.328125 -36.859375 23.65625 -36.03125 25.84375 -34.375 C 28.03125 -32.71875 29.125 -30.226562 29.125 -26.90625 C 29.125 -25.53125 28.898438 -24.320312 28.453125 -23.28125 C 28.003906 -22.25 27.421875 -21.351562 26.703125 -20.59375 C 25.984375 -19.84375 25.164062 -19.210938 24.25 -18.703125 C 23.34375 -18.203125 22.4375 -17.800781 21.53125 -17.5 Z M 12.078125 -18.6875 L 15.703125 -18.6875 C 17.222656 -18.6875 18.484375 -18.851562 19.484375 -19.1875 C 20.492188 -19.519531 21.300781 -20.019531 21.90625 -20.6875 C 22.507812 -21.363281 22.941406 -22.207031 23.203125 -23.21875 C 23.460938 -24.226562 23.59375 -25.40625 23.59375 -26.75 C 23.59375 -28.132812 23.453125 -29.304688 23.171875 -30.265625 C 22.890625 -31.234375 22.425781 -32.023438 21.78125 -32.640625 C 21.144531 -33.253906 20.316406 -33.695312 19.296875 -33.96875 C 18.285156 -34.25 17.046875 -34.390625 15.578125 -34.390625 L 12.078125 -34.390625 Z M 12.078125 -18.6875 "/></g></g></g><g clip-path="url(#024d5cb51e)"><g fill="#917148" fill-opacity="1"><g transform="translate(266.01521, 45.480226)"><g><path d="M 12.078125 -2.578125 L 22.03125 -2.578125 C 22.863281 -2.578125 23.566406 -2.6875 24.140625 -2.90625 C 24.722656 -3.132812 25.207031 -3.441406 25.59375 -3.828125 C 25.976562 -4.210938 26.28125 -4.660156 26.5 -5.171875 C 26.71875 -5.691406 26.867188 -6.238281 26.953125 -6.8125 L 27.3125 -9.03125 L 30 -9.03125 L 29.65625 0 L 1.96875 0 L 1.96875 -2.171875 L 2.625 -2.171875 C 3.195312 -2.171875 3.738281 -2.207031 4.25 -2.28125 C 4.757812 -2.351562 5.207031 -2.503906 5.59375 -2.734375 C 5.976562 -2.972656 6.285156 -3.320312 6.515625 -3.78125 C 6.742188 -4.25 6.859375 -4.863281 6.859375 -5.625 L 6.859375 -30.984375 C 6.859375 -31.796875 6.75 -32.441406 6.53125 -32.921875 C 6.3125 -33.410156 6.007812 -33.785156 5.625 -34.046875 C 5.238281 -34.304688 4.785156 -34.476562 4.265625 -34.5625 C 3.753906 -34.65625 3.207031 -34.703125 2.625 -34.703125 L 1.96875 -34.703125 L 1.96875 -36.859375 L 27.984375 -36.859375 L 28.234375 -27.84375 L 25.5625 -27.84375 L 25.3125 -30.0625 C 25.25 -30.625 25.117188 -31.160156 24.921875 -31.671875 C 24.734375 -32.191406 24.457031 -32.644531 24.09375 -33.03125 C 23.726562 -33.414062 23.269531 -33.722656 22.71875 -33.953125 C 22.175781 -34.179688 21.519531 -34.296875 20.75 -34.296875 L 12.078125 -34.296875 L 12.078125 -20.546875 L 24.53125 -20.546875 L 24.53125 -18.03125 L 12.078125 -18.03125 Z M 12.078125 -2.578125 "/></g></g></g></g></svg>